<mxfile host="Electron" modified="2024-05-02T15:20:22.347Z" agent="Mozilla/5.0 (Macintosh; Intel Mac OS X 10_15_7) AppleWebKit/537.36 (KHTML, like Gecko) draw.io/24.2.5 Chrome/120.0.6099.109 Electron/28.1.0 Safari/537.36" etag="ABTFwBjyweIQht13C9Pt" version="24.2.5" type="device">
  <diagram name="第 1 页" id="BL3kUPIIXOaZCsNuidUX">
    <mxGraphModel dx="1326" dy="2344" grid="1" gridSize="10" guides="1" tooltips="1" connect="1" arrows="1" fold="1" page="1" pageScale="1" pageWidth="827" pageHeight="1169" math="0" shadow="0">
      <root>
        <mxCell id="0" />
        <mxCell id="1" parent="0" />
        <mxCell id="5EsewTRmIhRO6SJT5q5--58" value="" style="rounded=1;whiteSpace=wrap;html=1;fillColor=#e1d5e7;strokeColor=#9673a6;" parent="1" vertex="1">
          <mxGeometry x="740" y="-250" width="180" height="210" as="geometry" />
        </mxCell>
        <mxCell id="5EsewTRmIhRO6SJT5q5--59" value="others" style="rounded=1;whiteSpace=wrap;html=1;fillColor=#bac8d3;strokeColor=#23445d;" parent="1" vertex="1">
          <mxGeometry x="770" y="-90" width="120" height="30" as="geometry" />
        </mxCell>
        <mxCell id="5EsewTRmIhRO6SJT5q5--52" value="" style="rounded=1;whiteSpace=wrap;html=1;fillColor=#d5e8d4;strokeColor=#82b366;" parent="1" vertex="1">
          <mxGeometry x="740" y="-630" width="180" height="230" as="geometry" />
        </mxCell>
        <mxCell id="5EsewTRmIhRO6SJT5q5--53" value="current" style="rounded=1;whiteSpace=wrap;html=1;fillColor=#b0e3e6;strokeColor=#0e8088;" parent="1" vertex="1">
          <mxGeometry x="770" y="-610" width="120" height="30" as="geometry" />
        </mxCell>
        <mxCell id="5EsewTRmIhRO6SJT5q5--47" value="" style="rounded=1;whiteSpace=wrap;html=1;fillColor=#fff2cc;strokeColor=#d6b656;" parent="1" vertex="1">
          <mxGeometry x="1050" y="-520" width="160" height="220" as="geometry" />
        </mxCell>
        <mxCell id="5EsewTRmIhRO6SJT5q5--34" value="" style="rounded=1;whiteSpace=wrap;html=1;fillColor=#fff2cc;strokeColor=#d6b656;" parent="1" vertex="1">
          <mxGeometry x="480" y="-410" width="160" height="220" as="geometry" />
        </mxCell>
        <mxCell id="5EsewTRmIhRO6SJT5q5--32" value="" style="rounded=1;whiteSpace=wrap;html=1;fillColor=#d5e8d4;strokeColor=#82b366;" parent="1" vertex="1">
          <mxGeometry x="170" y="-520" width="180" height="330" as="geometry" />
        </mxCell>
        <mxCell id="5EsewTRmIhRO6SJT5q5--16" style="edgeStyle=orthogonalEdgeStyle;rounded=0;orthogonalLoop=1;jettySize=auto;html=1;exitX=0.5;exitY=1;exitDx=0;exitDy=0;entryX=0.5;entryY=0;entryDx=0;entryDy=0;" parent="1" source="5EsewTRmIhRO6SJT5q5--1" target="5EsewTRmIhRO6SJT5q5--5" edge="1">
          <mxGeometry relative="1" as="geometry" />
        </mxCell>
        <mxCell id="5EsewTRmIhRO6SJT5q5--1" value="do_exit" style="rounded=0;whiteSpace=wrap;html=1;" parent="1" vertex="1">
          <mxGeometry x="200" y="-450" width="120" height="40" as="geometry" />
        </mxCell>
        <mxCell id="5EsewTRmIhRO6SJT5q5--14" style="edgeStyle=orthogonalEdgeStyle;rounded=0;orthogonalLoop=1;jettySize=auto;html=1;exitX=0.5;exitY=1;exitDx=0;exitDy=0;entryX=0.5;entryY=0;entryDx=0;entryDy=0;" parent="1" source="5EsewTRmIhRO6SJT5q5--2" target="5EsewTRmIhRO6SJT5q5--13" edge="1">
          <mxGeometry relative="1" as="geometry" />
        </mxCell>
        <mxCell id="5EsewTRmIhRO6SJT5q5--2" value="sys_waitpid" style="rounded=0;whiteSpace=wrap;html=1;" parent="1" vertex="1">
          <mxGeometry x="500" y="-350" width="120" height="40" as="geometry" />
        </mxCell>
        <mxCell id="5EsewTRmIhRO6SJT5q5--9" style="edgeStyle=orthogonalEdgeStyle;rounded=0;orthogonalLoop=1;jettySize=auto;html=1;exitX=0.5;exitY=1;exitDx=0;exitDy=0;strokeWidth=1;strokeColor=#ff0000;" parent="1" source="5EsewTRmIhRO6SJT5q5--3" target="5EsewTRmIhRO6SJT5q5--4" edge="1">
          <mxGeometry relative="1" as="geometry" />
        </mxCell>
        <mxCell id="5EsewTRmIhRO6SJT5q5--41" value="&lt;font color=&quot;#ff0000&quot;&gt;without task_struct&amp;nbsp;&lt;/font&gt;" style="edgeLabel;html=1;align=center;verticalAlign=middle;resizable=0;points=[];" parent="5EsewTRmIhRO6SJT5q5--9" vertex="1" connectable="0">
          <mxGeometry x="-0.0667" relative="1" as="geometry">
            <mxPoint y="2" as="offset" />
          </mxGeometry>
        </mxCell>
        <mxCell id="5EsewTRmIhRO6SJT5q5--3" value="release" style="rounded=0;whiteSpace=wrap;html=1;" parent="1" vertex="1">
          <mxGeometry x="200" y="-250" width="120" height="40" as="geometry" />
        </mxCell>
        <mxCell id="5EsewTRmIhRO6SJT5q5--4" value="schedule" style="rounded=0;whiteSpace=wrap;html=1;" parent="1" vertex="1">
          <mxGeometry x="200" y="-150" width="120" height="40" as="geometry" />
        </mxCell>
        <mxCell id="5EsewTRmIhRO6SJT5q5--7" style="edgeStyle=orthogonalEdgeStyle;rounded=0;orthogonalLoop=1;jettySize=auto;html=1;exitX=0.5;exitY=1;exitDx=0;exitDy=0;entryX=0.5;entryY=0;entryDx=0;entryDy=0;" parent="1" source="5EsewTRmIhRO6SJT5q5--5" target="5EsewTRmIhRO6SJT5q5--3" edge="1">
          <mxGeometry relative="1" as="geometry" />
        </mxCell>
        <mxCell id="5EsewTRmIhRO6SJT5q5--11" value="N" style="edgeLabel;html=1;align=center;verticalAlign=middle;resizable=0;points=[];" parent="5EsewTRmIhRO6SJT5q5--7" vertex="1" connectable="0">
          <mxGeometry x="-0.12" y="1" relative="1" as="geometry">
            <mxPoint as="offset" />
          </mxGeometry>
        </mxCell>
        <mxCell id="5EsewTRmIhRO6SJT5q5--8" style="edgeStyle=orthogonalEdgeStyle;rounded=0;orthogonalLoop=1;jettySize=auto;html=1;exitX=1;exitY=0.5;exitDx=0;exitDy=0;entryX=0;entryY=0.5;entryDx=0;entryDy=0;dashed=1;strokeColor=#0000FF;" parent="1" source="5EsewTRmIhRO6SJT5q5--5" target="5EsewTRmIhRO6SJT5q5--2" edge="1">
          <mxGeometry relative="1" as="geometry" />
        </mxCell>
        <mxCell id="fIFGQOXY7mSVYcmpRcrS-1" value="&lt;span style=&quot;color: rgb(0, 0, 255);&quot;&gt;ZOMBIE&lt;/span&gt;" style="edgeLabel;html=1;align=center;verticalAlign=middle;resizable=0;points=[];" vertex="1" connectable="0" parent="5EsewTRmIhRO6SJT5q5--8">
          <mxGeometry x="0.25" y="-1" relative="1" as="geometry">
            <mxPoint as="offset" />
          </mxGeometry>
        </mxCell>
        <mxCell id="5EsewTRmIhRO6SJT5q5--10" style="edgeStyle=orthogonalEdgeStyle;rounded=0;orthogonalLoop=1;jettySize=auto;html=1;exitX=1;exitY=0.5;exitDx=0;exitDy=0;" parent="1" source="5EsewTRmIhRO6SJT5q5--5" edge="1">
          <mxGeometry relative="1" as="geometry">
            <mxPoint x="320" y="-140" as="targetPoint" />
            <Array as="points">
              <mxPoint x="390" y="-330" />
              <mxPoint x="390" y="-140" />
            </Array>
          </mxGeometry>
        </mxCell>
        <mxCell id="5EsewTRmIhRO6SJT5q5--12" value="Y" style="edgeLabel;html=1;align=center;verticalAlign=middle;resizable=0;points=[];" parent="5EsewTRmIhRO6SJT5q5--10" vertex="1" connectable="0">
          <mxGeometry x="-0.8562" relative="1" as="geometry">
            <mxPoint as="offset" />
          </mxGeometry>
        </mxCell>
        <mxCell id="5EsewTRmIhRO6SJT5q5--5" value="current-&amp;gt;father" style="rhombus;whiteSpace=wrap;html=1;" parent="1" vertex="1">
          <mxGeometry x="180" y="-360" width="160" height="60" as="geometry" />
        </mxCell>
        <mxCell id="5EsewTRmIhRO6SJT5q5--15" style="edgeStyle=orthogonalEdgeStyle;rounded=0;orthogonalLoop=1;jettySize=auto;html=1;exitX=0.5;exitY=1;exitDx=0;exitDy=0;entryX=1;entryY=0.75;entryDx=0;entryDy=0;strokeColor=#ff0000;" parent="1" source="5EsewTRmIhRO6SJT5q5--13" target="5EsewTRmIhRO6SJT5q5--4" edge="1">
          <mxGeometry relative="1" as="geometry" />
        </mxCell>
        <mxCell id="5EsewTRmIhRO6SJT5q5--43" value="&lt;span style=&quot;color: rgb(255, 0, 0);&quot;&gt;without task_struct&amp;nbsp;&lt;/span&gt;" style="edgeLabel;html=1;align=center;verticalAlign=middle;resizable=0;points=[];" parent="5EsewTRmIhRO6SJT5q5--15" vertex="1" connectable="0">
          <mxGeometry x="-0.5556" y="-2" relative="1" as="geometry">
            <mxPoint x="2" y="-20" as="offset" />
          </mxGeometry>
        </mxCell>
        <mxCell id="5EsewTRmIhRO6SJT5q5--13" value="release" style="rounded=0;whiteSpace=wrap;html=1;" parent="1" vertex="1">
          <mxGeometry x="500" y="-250" width="120" height="40" as="geometry" />
        </mxCell>
        <mxCell id="5EsewTRmIhRO6SJT5q5--38" style="edgeStyle=orthogonalEdgeStyle;rounded=0;orthogonalLoop=1;jettySize=auto;html=1;exitX=0.5;exitY=1;exitDx=0;exitDy=0;entryX=0.5;entryY=0;entryDx=0;entryDy=0;" parent="1" source="5EsewTRmIhRO6SJT5q5--18" target="5EsewTRmIhRO6SJT5q5--31" edge="1">
          <mxGeometry relative="1" as="geometry" />
        </mxCell>
        <mxCell id="5EsewTRmIhRO6SJT5q5--18" value="do_exit" style="rounded=0;whiteSpace=wrap;html=1;" parent="1" vertex="1">
          <mxGeometry x="770" y="-560" width="120" height="40" as="geometry" />
        </mxCell>
        <mxCell id="5EsewTRmIhRO6SJT5q5--50" style="edgeStyle=orthogonalEdgeStyle;rounded=0;orthogonalLoop=1;jettySize=auto;html=1;exitX=0.5;exitY=1;exitDx=0;exitDy=0;entryX=0.5;entryY=0;entryDx=0;entryDy=0;" parent="1" source="5EsewTRmIhRO6SJT5q5--20" target="5EsewTRmIhRO6SJT5q5--30" edge="1">
          <mxGeometry relative="1" as="geometry" />
        </mxCell>
        <mxCell id="5EsewTRmIhRO6SJT5q5--20" value="sys_waitpid" style="rounded=0;whiteSpace=wrap;html=1;" parent="1" vertex="1">
          <mxGeometry x="1070" y="-460" width="120" height="40" as="geometry" />
        </mxCell>
        <mxCell id="5EsewTRmIhRO6SJT5q5--56" style="edgeStyle=orthogonalEdgeStyle;rounded=0;orthogonalLoop=1;jettySize=auto;html=1;exitX=0.5;exitY=1;exitDx=0;exitDy=0;entryX=0.5;entryY=0;entryDx=0;entryDy=0;" parent="1" source="5EsewTRmIhRO6SJT5q5--23" target="5EsewTRmIhRO6SJT5q5--55" edge="1">
          <mxGeometry relative="1" as="geometry" />
        </mxCell>
        <mxCell id="5EsewTRmIhRO6SJT5q5--23" value="schedule" style="rounded=0;whiteSpace=wrap;html=1;" parent="1" vertex="1">
          <mxGeometry x="770" y="-330" width="120" height="40" as="geometry" />
        </mxCell>
        <mxCell id="5EsewTRmIhRO6SJT5q5--30" value="release" style="rounded=0;whiteSpace=wrap;html=1;" parent="1" vertex="1">
          <mxGeometry x="1070" y="-360" width="120" height="40" as="geometry" />
        </mxCell>
        <mxCell id="5EsewTRmIhRO6SJT5q5--39" style="edgeStyle=orthogonalEdgeStyle;rounded=0;orthogonalLoop=1;jettySize=auto;html=1;exitX=0.5;exitY=1;exitDx=0;exitDy=0;entryX=0.5;entryY=0;entryDx=0;entryDy=0;strokeColor=#ff02ff;" parent="1" source="5EsewTRmIhRO6SJT5q5--31" target="5EsewTRmIhRO6SJT5q5--23" edge="1">
          <mxGeometry relative="1" as="geometry" />
        </mxCell>
        <mxCell id="5EsewTRmIhRO6SJT5q5--40" value="N" style="edgeLabel;html=1;align=center;verticalAlign=middle;resizable=0;points=[];" parent="5EsewTRmIhRO6SJT5q5--39" vertex="1" connectable="0">
          <mxGeometry x="-0.6286" relative="1" as="geometry">
            <mxPoint as="offset" />
          </mxGeometry>
        </mxCell>
        <mxCell id="5EsewTRmIhRO6SJT5q5--44" value="&lt;font color=&quot;#ff00ff&quot;&gt;DEAD&lt;/font&gt;" style="edgeLabel;html=1;align=center;verticalAlign=middle;resizable=0;points=[];" parent="5EsewTRmIhRO6SJT5q5--39" vertex="1" connectable="0">
          <mxGeometry x="0.3429" y="1" relative="1" as="geometry">
            <mxPoint as="offset" />
          </mxGeometry>
        </mxCell>
        <mxCell id="5EsewTRmIhRO6SJT5q5--46" style="edgeStyle=orthogonalEdgeStyle;rounded=0;orthogonalLoop=1;jettySize=auto;html=1;exitX=1;exitY=0.5;exitDx=0;exitDy=0;entryX=0;entryY=0.5;entryDx=0;entryDy=0;dashed=1;strokeColor=#0000FF;" parent="1" source="5EsewTRmIhRO6SJT5q5--31" target="5EsewTRmIhRO6SJT5q5--20" edge="1">
          <mxGeometry relative="1" as="geometry" />
        </mxCell>
        <mxCell id="fIFGQOXY7mSVYcmpRcrS-2" value="&lt;span style=&quot;color: rgb(0, 0, 255);&quot;&gt;ZOMBIE&lt;/span&gt;" style="edgeLabel;html=1;align=center;verticalAlign=middle;resizable=0;points=[];" vertex="1" connectable="0" parent="5EsewTRmIhRO6SJT5q5--46">
          <mxGeometry x="-0.0462" y="-1" relative="1" as="geometry">
            <mxPoint x="34" y="-1" as="offset" />
          </mxGeometry>
        </mxCell>
        <mxCell id="fIFGQOXY7mSVYcmpRcrS-4" style="edgeStyle=orthogonalEdgeStyle;rounded=0;orthogonalLoop=1;jettySize=auto;html=1;exitX=1;exitY=0.5;exitDx=0;exitDy=0;entryX=1;entryY=0.5;entryDx=0;entryDy=0;" edge="1" parent="1" source="5EsewTRmIhRO6SJT5q5--31" target="5EsewTRmIhRO6SJT5q5--23">
          <mxGeometry relative="1" as="geometry">
            <Array as="points">
              <mxPoint x="970" y="-440" />
              <mxPoint x="970" y="-310" />
            </Array>
          </mxGeometry>
        </mxCell>
        <mxCell id="fIFGQOXY7mSVYcmpRcrS-5" value="Y" style="edgeLabel;html=1;align=center;verticalAlign=middle;resizable=0;points=[];" vertex="1" connectable="0" parent="fIFGQOXY7mSVYcmpRcrS-4">
          <mxGeometry x="-0.7481" y="-2" relative="1" as="geometry">
            <mxPoint as="offset" />
          </mxGeometry>
        </mxCell>
        <mxCell id="5EsewTRmIhRO6SJT5q5--31" value="current-&amp;gt;father" style="rhombus;whiteSpace=wrap;html=1;" parent="1" vertex="1">
          <mxGeometry x="750" y="-470" width="160" height="60" as="geometry" />
        </mxCell>
        <mxCell id="5EsewTRmIhRO6SJT5q5--33" value="current" style="rounded=1;whiteSpace=wrap;html=1;fillColor=#b0e3e6;strokeColor=#0e8088;" parent="1" vertex="1">
          <mxGeometry x="200" y="-500" width="120" height="30" as="geometry" />
        </mxCell>
        <mxCell id="5EsewTRmIhRO6SJT5q5--36" value="father" style="rounded=1;whiteSpace=wrap;html=1;fillColor=#f8cecc;strokeColor=#b85450;" parent="1" vertex="1">
          <mxGeometry x="500" y="-390" width="120" height="30" as="geometry" />
        </mxCell>
        <mxCell id="5EsewTRmIhRO6SJT5q5--48" value="father" style="rounded=1;whiteSpace=wrap;html=1;fillColor=#f8cecc;strokeColor=#b85450;" parent="1" vertex="1">
          <mxGeometry x="1070" y="-500" width="120" height="30" as="geometry" />
        </mxCell>
        <mxCell id="5EsewTRmIhRO6SJT5q5--54" value="release" style="rounded=0;whiteSpace=wrap;html=1;" parent="1" vertex="1">
          <mxGeometry x="770" y="-150" width="120" height="40" as="geometry" />
        </mxCell>
        <mxCell id="5EsewTRmIhRO6SJT5q5--57" style="edgeStyle=orthogonalEdgeStyle;rounded=0;orthogonalLoop=1;jettySize=auto;html=1;exitX=0.5;exitY=1;exitDx=0;exitDy=0;entryX=0.5;entryY=0;entryDx=0;entryDy=0;" parent="1" source="5EsewTRmIhRO6SJT5q5--55" target="5EsewTRmIhRO6SJT5q5--54" edge="1">
          <mxGeometry relative="1" as="geometry" />
        </mxCell>
        <mxCell id="5EsewTRmIhRO6SJT5q5--55" value="finish_task_switch" style="ellipse;whiteSpace=wrap;html=1;" parent="1" vertex="1">
          <mxGeometry x="770" y="-230" width="120" height="40" as="geometry" />
        </mxCell>
      </root>
    </mxGraphModel>
  </diagram>
</mxfile>
